<svg width="2675" height="1216" viewBox="0 0 2675 1216" fill="none" xmlns="http://www.w3.org/2000/svg">
<path d="M1786.99 36.0482C1792.14 42.9145 1800.72 58.3638 1800.72 77.2462C1800.72 123.594 1764.67 152.776 1709.74 152.776C1692.58 152.776 1677.13 149.343 1663.4 142.476C1659.96 147.626 1654.81 154.492 1654.81 159.642C1654.81 169.942 1666.83 181.958 1675.41 181.958C1704.59 180.241 1740.64 178.525 1785.27 181.958C1799.01 183.674 1809.31 188.824 1817.89 199.124C1824.76 207.706 1831.62 221.439 1831.62 235.172C1831.62 260.921 1814.46 286.669 1785.27 305.552C1761.24 321.001 1732.06 333.017 1696.01 333.017C1644.51 333.017 1610.18 310.701 1610.18 283.236C1610.18 276.37 1615.33 269.504 1620.48 262.637L1654.81 230.022V228.306C1642.8 223.156 1635.93 218.006 1625.63 207.706C1618.77 199.124 1613.62 185.391 1613.62 176.808C1613.62 168.225 1634.21 147.626 1647.95 135.61C1630.78 123.594 1620.48 104.711 1620.48 80.6793C1620.48 37.7648 1661.68 5.1498 1714.89 5.1498C1730.34 5.1498 1740.64 6.8663 1752.66 10.2995C1766.39 12.0161 1776.69 13.7327 1792.14 17.1658L1833.34 0L1835.05 3.43311L1816.17 36.0482H1786.99ZM1711.46 231.739C1682.28 231.739 1677.13 233.455 1673.7 235.172C1668.55 240.322 1661.68 250.621 1661.68 260.921C1661.68 286.669 1689.14 305.552 1721.76 305.552C1757.81 305.552 1786.99 290.102 1786.99 259.204C1786.99 248.904 1780.12 238.605 1764.67 235.172C1754.38 233.455 1742.36 231.739 1711.46 231.739ZM1713.18 22.3156C1687.43 22.3156 1678.85 54.9306 1678.85 77.2462C1678.85 101.278 1689.14 133.894 1713.18 133.894C1737.21 133.894 1745.79 104.712 1745.79 78.9628C1747.51 58.3638 1740.64 22.3156 1713.18 22.3156Z" fill="#951B81"/>
<path d="M1453.96 156.214C1484.86 149.348 1510.61 142.481 1539.79 140.765L1543.22 142.482C1541.5 178.53 1522.62 228.311 1505.46 242.043L1498.59 248.91C1486.57 243.76 1464.26 228.311 1443.66 218.011H1409.33V626.558C1416.19 638.574 1443.66 652.307 1514.04 657.456L1507.17 684.922C1481.42 705.521 1448.81 719.253 1397.31 719.253C1338.95 719.253 1302.9 688.355 1302.9 643.724V218.011H1182.74V502.964C1182.74 611.109 1174.16 664.323 1163.86 681.488C1141.54 705.521 1072.88 720.97 1017.95 720.97L1005.93 700.371C1026.53 678.055 1066.01 643.724 1083.18 628.274C1090.04 609.392 1093.48 580.21 1093.48 508.114V216.295H1059.14C1014.51 216.295 969.882 233.46 949.283 240.327L944.134 219.728C957.866 199.129 1014.51 154.498 1107.21 154.498H1453.96V156.214Z" fill="#951B81"/>
<path d="M266.06 1036.82C266.06 1038.54 266.06 1040.25 266.06 1041.97C266.06 1081.45 290.092 1107.2 322.707 1107.2C326.14 1107.2 329.573 1107.2 333.006 1105.48C345.022 1095.18 362.188 1084.88 370.771 1079.73L372.488 1086.6C370.771 1100.33 351.889 1117.5 345.022 1122.65C338.156 1126.08 319.274 1131.23 303.824 1131.23C250.61 1131.23 214.562 1096.9 214.562 1040.25C214.562 985.321 255.76 945.84 303.824 945.84C345.022 945.84 377.637 971.589 377.637 1017.94C377.637 1023.09 375.921 1028.24 374.204 1029.95C370.771 1031.67 355.322 1036.82 333.006 1036.82H266.06ZM327.857 1019.65C327.857 1016.22 329.573 1012.79 329.573 1007.64C329.573 981.888 319.274 961.289 302.108 961.289C278.076 961.289 266.06 997.337 266.06 1019.65H327.857Z" fill="#272C3E"/>
<path d="M659.13 1036.82C659.13 1038.54 659.13 1040.25 659.13 1041.97C659.13 1081.45 683.163 1107.2 715.778 1107.2C719.211 1107.2 722.644 1107.2 726.077 1105.48C738.093 1095.18 755.259 1084.88 763.842 1079.73L765.558 1086.6C763.842 1100.33 744.959 1117.5 738.093 1122.65C731.227 1126.08 712.344 1131.23 696.895 1131.23C643.681 1131.23 607.633 1096.9 607.633 1040.25C607.633 985.321 648.831 945.84 696.895 945.84C738.093 945.84 770.708 971.589 770.708 1017.94C770.708 1023.09 768.992 1028.24 767.275 1029.95C763.842 1031.67 748.393 1036.82 726.077 1036.82H659.13ZM722.644 1019.65C722.644 1016.22 724.361 1012.79 724.361 1007.64C724.361 981.888 714.061 961.289 696.895 961.289C672.863 961.289 660.847 997.337 660.847 1019.65H722.644Z" fill="#272C3E"/>
<path d="M1225.6 1036.82C1225.6 1038.54 1225.6 1040.25 1225.6 1041.97C1225.6 1081.45 1249.63 1107.2 1282.25 1107.2C1285.68 1107.2 1289.12 1107.2 1292.55 1105.48C1304.56 1095.18 1321.73 1084.88 1330.31 1079.73L1332.03 1086.6C1330.31 1100.33 1311.43 1117.5 1304.56 1122.65C1297.7 1126.08 1278.82 1131.23 1263.37 1131.23C1210.15 1131.23 1174.1 1096.9 1174.1 1040.25C1174.1 985.321 1215.3 945.84 1263.37 945.84C1304.56 945.84 1337.18 971.589 1337.18 1017.94C1337.18 1023.09 1335.46 1028.24 1333.75 1029.95C1330.31 1031.67 1314.86 1036.82 1292.55 1036.82H1225.6ZM1289.12 1019.65C1289.12 1016.22 1290.83 1012.79 1290.83 1007.64C1290.83 981.888 1280.53 961.289 1263.37 961.289C1239.33 961.289 1227.32 997.337 1227.32 1019.65H1289.12Z" fill="#272C3E"/>
<path d="M1771.5 971.593C1776.65 976.743 1783.52 990.475 1783.52 1005.92C1783.52 1043.69 1752.62 1067.72 1707.99 1067.72C1694.25 1067.72 1680.52 1064.29 1668.51 1059.14C1665.07 1064.29 1661.64 1069.44 1661.64 1072.87C1661.64 1081.45 1671.94 1091.75 1678.8 1091.75C1702.84 1090.04 1733.74 1088.32 1771.5 1091.75C1783.52 1093.47 1792.1 1096.9 1798.97 1105.49C1805.83 1112.35 1810.98 1124.37 1810.98 1134.67C1810.98 1155.27 1797.25 1177.58 1771.5 1193.03C1752.62 1206.76 1726.87 1215.35 1697.69 1215.35C1654.77 1215.35 1625.59 1196.47 1625.59 1174.15C1625.59 1167.28 1629.02 1162.13 1634.17 1156.98L1661.64 1131.24C1651.34 1127.8 1646.19 1122.65 1637.61 1114.07C1632.46 1107.2 1627.31 1095.19 1627.31 1088.32C1627.31 1081.45 1644.47 1062.57 1656.49 1053.99C1642.76 1043.69 1632.46 1028.24 1632.46 1007.64C1632.46 971.593 1666.79 944.128 1711.42 944.128C1723.44 944.128 1733.74 945.844 1742.32 947.561C1754.33 949.277 1762.92 950.994 1774.93 952.711L1809.26 938.978L1810.98 942.411L1795.53 969.876L1771.5 971.593ZM1707.99 1134.67C1683.95 1134.67 1680.52 1136.39 1677.09 1138.1C1671.94 1141.53 1666.79 1151.83 1666.79 1158.7C1666.79 1181.02 1690.82 1194.75 1716.57 1194.75C1745.75 1194.75 1771.5 1181.02 1771.5 1155.27C1771.5 1146.68 1766.35 1138.1 1752.62 1134.67C1744.03 1136.39 1733.74 1134.67 1707.99 1134.67ZM1709.7 959.577C1687.39 959.577 1680.52 987.042 1680.52 1005.92C1680.52 1026.52 1689.1 1052.27 1709.7 1052.27C1730.3 1052.27 1737.17 1028.24 1737.17 1005.92C1738.89 990.475 1732.02 959.577 1709.7 959.577Z" fill="#272C3E"/>
<path d="M2066.76 945.84C2121.69 945.84 2159.46 983.605 2159.46 1036.82C2159.46 1093.47 2119.98 1131.23 2065.04 1131.23C2015.26 1131.23 1970.63 1098.62 1970.63 1040.25C1972.35 980.172 2020.41 945.84 2066.76 945.84ZM2065.04 961.289C2035.86 961.289 2025.56 1002.49 2025.56 1035.1C2025.56 1071.15 2039.3 1117.5 2070.19 1117.5C2101.09 1117.5 2107.96 1071.15 2107.96 1041.97C2107.96 1007.64 2095.94 961.289 2065.04 961.289Z" fill="#272C3E"/>
<path d="M490.915 1131.23C528.68 1131.23 587.044 1102.05 587.044 1029.95C587.044 975.022 542.413 945.84 509.798 945.84C499.498 945.84 485.766 952.706 458.3 969.872L460.017 945.84C441.135 945.84 398.22 954.423 393.07 956.139L389.637 964.722L411.953 978.455V1211.91C420.536 1211.91 429.118 1211.91 435.985 1211.91C454.867 1211.91 475.466 1211.91 494.349 1211.91L497.782 1201.61L461.734 1187.88C461.734 1172.43 460.017 1144.96 460.017 1120.93C472.033 1126.08 485.766 1131.23 490.915 1131.23ZM458.3 983.605C468.6 978.455 475.466 975.022 482.332 975.022C509.798 975.022 535.547 999.054 535.547 1040.25C535.547 1084.88 508.081 1108.92 478.899 1108.92C470.316 1108.92 463.45 1107.2 458.3 1103.77V983.605Z" fill="#272C3E"/>
<path d="M935.546 918.372L938.979 916.655C945.845 911.505 959.578 897.773 964.728 889.19V884.04C959.578 873.74 947.562 860.008 940.696 856.575H937.262C928.679 861.724 918.38 873.74 911.514 884.04V887.473C914.947 901.206 925.246 913.222 935.546 918.372Z" fill="#272C3E"/>
<path d="M964.725 1103.77C964.725 1093.47 964.725 1072.87 964.725 1028.24V945.84C937.26 947.557 902.928 956.14 897.779 957.856L896.062 966.439L918.378 976.739V1126.08C926.961 1126.08 933.827 1126.08 942.41 1126.08C959.576 1126.08 975.025 1126.08 992.191 1126.08L995.624 1115.78L964.725 1103.77Z" fill="#272C3E"/>
<path d="M1086.58 945.84C1077.99 945.84 1069.41 949.273 1059.11 952.706C1040.23 959.573 1017.91 973.305 1004.18 983.605C1005.9 988.755 1009.33 993.904 1012.76 999.054C1021.35 999.054 1031.65 1000.77 1041.94 1000.77C1043.66 990.471 1045.38 980.172 1045.38 971.589C1050.53 969.872 1059.11 966.439 1065.98 966.439C1083.14 966.439 1100.31 975.022 1100.31 1009.35V1019.65C1074.56 1026.52 1031.65 1040.25 1019.63 1048.84C1009.33 1053.98 1002.46 1064.28 1002.46 1081.45C1002.46 1102.05 1019.63 1131.23 1053.96 1131.23C1067.69 1131.23 1081.43 1124.36 1100.31 1108.92C1103.74 1117.5 1115.76 1129.51 1141.51 1129.51C1143.22 1129.51 1143.22 1129.51 1144.94 1129.51C1144.94 1129.51 1144.94 1012.79 1144.94 1005.92C1148.37 981.888 1134.64 945.84 1086.58 945.84ZM1100.31 1086.6C1100.31 1090.03 1100.31 1093.47 1096.88 1095.18C1091.73 1100.33 1086.58 1102.05 1079.71 1102.05C1067.69 1102.05 1052.24 1095.18 1052.24 1072.87C1052.24 1062.57 1055.68 1055.7 1064.26 1050.55C1074.56 1045.4 1090.01 1038.54 1100.31 1035.1V1086.6Z" fill="#272C3E"/>
<path d="M1493.41 950.986C1491.7 950.986 1488.27 950.986 1486.55 950.986C1483.12 959.569 1479.68 969.868 1476.25 980.168C1462.52 1021.37 1450.5 1055.7 1443.63 1072.86C1428.18 1031.67 1414.45 993.901 1407.59 975.018L1417.89 963.002L1421.32 952.703C1407.59 952.703 1393.85 952.703 1380.12 952.703C1369.82 952.703 1359.52 952.703 1349.22 952.703C1347.51 957.852 1347.51 963.002 1347.51 964.719C1349.22 968.152 1350.94 971.585 1352.66 976.735C1352.66 976.735 1414.45 1127.79 1417.89 1134.66H1423.04C1429.9 1129.51 1440.2 1117.49 1447.07 1108.91C1460.8 1074.58 1495.13 990.467 1502 978.451C1508.86 971.585 1517.45 966.435 1526.03 961.285L1529.46 950.986C1515.73 949.269 1503.71 950.986 1493.41 950.986Z" fill="#272C3E"/>
<path d="M1943.19 945.84C1924.31 945.84 1905.42 959.573 1891.69 981.888H1889.97C1889.97 973.305 1888.26 954.423 1886.54 945.84C1871.09 945.84 1831.61 957.856 1824.74 961.289L1821.31 969.872L1841.91 980.172C1841.91 988.755 1841.91 1124.36 1841.91 1124.36C1850.49 1124.36 1857.36 1124.36 1864.23 1124.36C1884.82 1124.36 1907.14 1124.36 1926.02 1124.36L1927.74 1114.06L1888.26 1102.05V999.054C1893.41 987.038 1905.42 975.022 1915.72 975.022C1919.16 975.022 1920.87 975.022 1920.87 976.739C1927.74 992.188 1932.89 999.054 1936.32 1004.2L1941.47 1002.49C1948.34 990.471 1958.64 963.006 1958.64 950.99C1960.35 949.273 1953.49 945.84 1943.19 945.84Z" fill="#272C3E"/>
<path d="M2348.27 947.557C2325.95 947.557 2291.62 950.99 2274.45 954.423L2271.02 963.006C2295.05 973.305 2298.49 975.022 2298.49 980.172V1084.88C2289.9 1095.18 2276.17 1100.33 2265.87 1100.33C2255.57 1100.33 2246.99 1095.18 2241.84 1090.03C2238.41 1084.88 2234.97 1076.3 2234.97 1059.13C2234.97 999.054 2236.69 968.156 2238.41 947.557C2214.37 947.557 2185.19 950.99 2169.74 954.423L2166.31 963.006L2188.63 975.022C2188.63 1000.77 2188.63 1038.54 2188.63 1067.72C2188.63 1090.03 2193.78 1105.48 2205.79 1115.78C2216.09 1124.36 2231.54 1129.51 2245.27 1129.51C2269.3 1129.51 2286.47 1117.5 2301.92 1100.33C2308.79 1122.65 2327.67 1127.8 2344.83 1127.8C2346.55 1127.8 2348.27 1127.8 2348.27 1127.8C2348.27 1129.51 2348.27 956.139 2348.27 947.557Z" fill="#272C3E"/>
<path d="M2478.76 1131.23C2516.52 1131.23 2574.89 1102.05 2574.89 1029.95C2574.89 975.022 2530.26 945.84 2497.64 945.84C2487.34 945.84 2473.61 952.706 2446.14 969.872L2447.86 945.84C2428.98 945.84 2386.06 954.423 2380.91 956.139L2377.48 964.722L2399.8 978.455V1211.91C2408.38 1211.91 2416.96 1211.91 2425.55 1211.91C2444.43 1211.91 2465.03 1211.91 2483.91 1211.91L2487.34 1201.61L2451.29 1187.88C2451.29 1172.43 2449.58 1144.96 2449.58 1120.93C2459.88 1126.08 2471.89 1131.23 2478.76 1131.23ZM2446.14 983.605C2456.44 978.455 2463.31 975.022 2470.18 975.022C2497.64 975.022 2523.39 999.054 2523.39 1040.25C2523.39 1084.88 2495.93 1108.92 2466.74 1108.92C2458.16 1108.92 2451.29 1107.2 2446.14 1103.77V983.605Z" fill="#272C3E"/>
<path d="M856.607 1102.04C856.607 1076.3 854.89 1045.4 854.89 966.435C854.89 923.52 854.89 880.606 856.607 847.991C837.724 847.991 798.243 854.857 786.227 858.29L782.794 866.873L805.109 877.172C806.826 896.055 806.826 1122.64 806.826 1122.64C815.409 1122.64 823.992 1122.64 832.575 1122.64C848.024 1122.64 865.19 1122.64 882.355 1122.64L885.789 1110.63L856.607 1102.04Z" fill="#272C3E"/>
<path d="M101.278 1132.95C139.043 1132.95 197.407 1103.77 197.407 1031.67C197.407 976.739 152.776 947.557 120.161 947.557C109.861 947.557 96.1286 954.423 68.6633 971.589L70.3799 947.557C51.4975 947.557 8.58293 956.14 3.43318 957.856L0 966.439L22.3156 980.172V1213.63C30.8985 1213.63 39.4814 1213.63 46.3477 1213.63C65.2302 1213.63 85.8292 1213.63 104.712 1213.63L108.145 1203.33L72.0965 1189.59C72.0965 1174.15 70.3799 1146.68 70.3799 1122.65C82.396 1127.8 94.4121 1132.95 101.278 1132.95ZM68.6633 985.321C78.9628 980.172 85.8292 976.739 92.6955 976.739C120.161 976.739 145.91 1000.77 145.91 1041.97C145.91 1086.6 118.444 1110.63 89.2623 1110.63C80.6794 1110.63 73.8131 1108.92 68.6633 1105.48V985.321Z" fill="#272C3E"/>
<path d="M2636.63 884.039C2657.23 884.039 2674.4 901.204 2674.4 921.803C2674.4 942.402 2657.23 959.568 2636.63 959.568C2616.03 959.568 2598.87 944.119 2598.87 921.803C2598.87 899.488 2616.03 884.039 2636.63 884.039ZM2636.63 890.905C2621.18 890.905 2607.45 904.638 2607.45 920.087C2607.45 937.253 2619.47 949.269 2636.63 949.269C2652.08 949.269 2664.1 935.536 2664.1 920.087C2665.81 904.638 2653.8 890.905 2636.63 890.905ZM2629.77 938.969H2621.18V902.921C2624.62 902.921 2629.77 901.204 2634.92 901.204C2641.78 901.204 2645.22 902.921 2646.93 904.638C2648.65 906.354 2650.37 909.787 2650.37 913.22C2650.37 918.37 2646.93 920.087 2643.5 921.803C2646.93 923.52 2648.65 925.237 2650.37 930.386C2652.08 935.536 2652.08 938.969 2653.8 938.969H2645.22C2643.5 937.253 2643.5 933.819 2641.78 930.386C2641.78 926.953 2638.35 925.237 2634.92 925.237H2631.48V938.969H2629.77ZM2629.77 918.37H2633.2C2638.35 918.37 2641.78 916.654 2641.78 913.22C2641.78 909.787 2640.07 908.071 2633.2 908.071C2631.48 908.071 2629.77 908.071 2628.05 908.071V918.37H2629.77Z" fill="#272C3E"/>
</svg>
